{
  "source": "C:\\Users\\Peter\\Desktop\\stuff\\MIUN\\quantitative_research\\video_compression\\videos\\BVI-HD\\BallUnderWater_1920x1080_60fps.mp4",
  "output": "C:\\Users\\Peter\\Desktop\\stuff\\MIUN\\quantitative_research\\video_compression\\compressed_videos\\BVI-HD\\av1\\12\\BallUnderWater_1920x1080_60fps_av1.mkv",
  "codec": "av1",
  "ok": "Input #0, mov,mp4,m4a,3gp,3g2,mj2, from 'C:\\Users\\Peter\\Desktop\\stuff\\MIUN\\quantitative_research\\video_compression\\videos\\BVI-HD\\BallUnderWater_1920x1080_60fps.mp4':\n  Metadata:\n    major_brand     : isom\n    minor_version   : 512\n    compatible_brands: isomiso2avc1mp41\n    encoder         : Lavf54.28.101\n  Duration: 00:00:05.00, start: 0.000000, bitrate: 212030 kb/s\n  Stream #0:0[0x1](und): Video: h264 (High 4:4:4 Predictive) (avc1 / 0x31637661), yuv420p(progressive), 1920x1080, 212025 kb/s, 60 fps, 60 tbr, 60 tbn (default)\n    Metadata:\n      handler_name    : VideoHandler\n      vendor_id       : [0][0][0][0]\n[out#0/matroska @ 000001e705d79480] Codec AVOption b:a (set bitrate (in bits/s)) has not been used for any stream. The most likely reason is either wrong type (e.g. a video option with no video streams) or that it is a private option of some decoder which was not actually used for any stream.\nStream mapping:\n  Stream #0:0 -> #0:0 (h264 (native) -> av1 (libsvtav1))\nPress [q] to stop, [?] for help\nSvt[info]: -------------------------------------------\nSvt[info]: SVT [version]:\tSVT-AV1 Encoder Lib v3.1.0-19-g6ecfe8ec\nSvt[info]: SVT [build]  :\tGCC 15.2.0\t 64 bit\nSvt[info]: LIB Build date: Aug 17 2025 11:37:13\nSvt[info]: -------------------------------------------\nSvt[info]: Level of Parallelism: 5\nSvt[info]: Number of PPCS 93\nSvt[info]: [asm level on system : up to avx2]\nSvt[info]: [asm level selected : up to avx2]\nSvt[info]: -------------------------------------------\nSvt[info]: SVT [config]: main profile\ttier (auto)\tlevel (auto)\nSvt[info]: SVT [config]: width / height / fps numerator / fps denominator \t\t: 1920 / 1080 / 60 / 1\nSvt[info]: SVT [config]: bit-depth / color format \t\t\t\t\t: 8 / YUV420\nSvt[info]: SVT [config]: preset / tune / pred struct \t\t\t\t\t: 4 / PSNR / random access\nSvt[info]: SVT [config]: gop size / mini-gop size / key-frame type \t\t\t: 321 / 16 / key frame\nSvt[info]: SVT [config]: BRC mode / target bitrate (kbps)\t\t\t\t: VBR / 12000 \nSvt[info]: SVT [config]: AQ mode / Variance Boost \t\t\t\t\t: 2 / 0\nSvt[info]: SVT [config]: sharpness / luminance-based QP bias \t\t\t\t: 0 / 0\nSvt[info]: SVT [config]: QP scale compress strength \t\t\t\t\t: 0\nSvt[info]: -------------------------------------------\nOutput #0, matroska, to 'C:\\Users\\Peter\\Desktop\\stuff\\MIUN\\quantitative_research\\video_compression\\compressed_videos\\BVI-HD\\av1\\12\\BallUnderWater_1920x1080_60fps_av1.mkv':\n  Metadata:\n    major_brand     : isom\n    minor_version   : 512\n    compatible_brands: isomiso2avc1mp41\n    encoder         : Lavf62.3.100\n  Stream #0:0(und): Video: av1 (AV01 / 0x31305641), yuv420p(tv, progressive), 1920x1080, q=2-31, 12000 kb/s, 60 fps, 1k tbn (default)\n    Metadata:\n      encoder         : Lavc62.11.100 libsvtav1\n      handler_name    : VideoHandler\n      vendor_id       : [0][0][0][0]\n    Side data:\n      cpb: bitrate max/min/avg: 0/0/12000000 buffer size: 12000000 vbv_delay: N/A\nframe=    0 fps=0.0 q=0.0 size=       0KiB time=N/A bitrate=N/A speed=N/A elapsed=0:00:11.10    \nframe=    0 fps=0.0 q=0.0 size=       0KiB time=N/A bitrate=N/A speed=N/A elapsed=0:00:11.72    \nframe=    0 fps=0.0 q=0.0 size=       0KiB time=N/A bitrate=N/A speed=N/A elapsed=0:00:12.45    \nframe=    0 fps=0.0 q=0.0 size=       0KiB time=N/A bitrate=N/A speed=N/A elapsed=0:00:13.01    \nframe=    0 fps=0.0 q=0.0 size=       0KiB time=N/A bitrate=N/A speed=N/A elapsed=0:00:13.60    \nframe=    0 fps=0.0 q=0.0 size=       0KiB time=N/A bitrate=N/A speed=N/A elapsed=0:00:14.17    \nframe=    0 fps=0.0 q=0.0 size=       0KiB time=N/A bitrate=N/A speed=N/A elapsed=0:00:14.77    \nframe=    0 fps=0.0 q=0.0 size=       0KiB time=N/A bitrate=N/A speed=N/A elapsed=0:00:15.30    \nframe=    0 fps=0.0 q=0.0 size=       0KiB time=N/A bitrate=N/A speed=N/A elapsed=0:00:15.85    \nframe=    0 fps=0.0 q=0.0 size=       0KiB time=N/A bitrate=N/A speed=N/A elapsed=0:00:16.41    \nframe=    0 fps=0.0 q=0.0 size=       0KiB time=N/A bitrate=N/A speed=N/A elapsed=0:00:16.98    \nframe=    0 fps=0.0 q=0.0 size=       0KiB time=N/A bitrate=N/A speed=N/A elapsed=0:00:17.54    \nframe=    0 fps=0.0 q=0.0 size=       0KiB time=N/A bitrate=N/A speed=N/A elapsed=0:00:18.09    \nframe=    0 fps=0.0 q=0.0 size=       0KiB time=N/A bitrate=N/A speed=N/A elapsed=0:00:18.62    \nframe=    0 fps=0.0 q=0.0 size=       0KiB time=N/A bitrate=N/A speed=N/A elapsed=0:00:19.19    \nframe=    0 fps=0.0 q=0.0 size=       0KiB time=N/A bitrate=N/A speed=N/A elapsed=0:00:19.88    \nframe=    0 fps=0.0 q=0.0 size=       0KiB time=N/A bitrate=N/A speed=N/A elapsed=0:00:20.49    \nframe=    0 fps=0.0 q=0.0 size=       0KiB time=N/A bitrate=N/A speed=N/A elapsed=0:00:21.05    \nframe=    0 fps=0.0 q=0.0 size=       0KiB time=N/A bitrate=N/A speed=N/A elapsed=0:00:21.61    \nframe=    0 fps=0.0 q=0.0 size=       0KiB time=N/A bitrate=N/A speed=N/A elapsed=0:00:22.26    \nframe=    0 fps=0.0 q=0.0 size=       0KiB time=N/A bitrate=N/A speed=N/A elapsed=0:00:22.96    \nframe=    1 fps=0.0 q=7.0 size=       1KiB time=N/A bitrate=N/A speed=N/A elapsed=0:00:23.65    \nframe=    1 fps=0.0 q=7.0 size=       1KiB time=00:00:00.00 bitrate=N/A speed=   0x elapsed=0:00:24.34    \nframe=    1 fps=0.0 q=7.0 size=       1KiB time=00:00:00.00 bitrate=N/A speed=   0x elapsed=0:00:25.06    \nframe=    1 fps=0.0 q=7.0 size=       1KiB time=00:00:00.00 bitrate=N/A speed=   0x elapsed=0:00:25.73    \nframe=    1 fps=0.0 q=7.0 size=       1KiB time=00:00:00.00 bitrate=N/A speed=   0x elapsed=0:00:26.47    \nframe=    1 fps=0.0 q=7.0 size=       1KiB time=00:00:00.00 bitrate=N/A speed=   0x elapsed=0:00:27.26    \nframe=    1 fps=0.0 q=7.0 size=       1KiB time=00:00:00.00 bitrate=N/A speed=   0x elapsed=0:00:28.05    \nframe=    2 fps=0.1 q=22.0 size=       1KiB time=00:00:00.01 bitrate= 341.8kbits/s speed=0.000577x elapsed=0:00:28.87    \nframe=    3 fps=0.1 q=19.0 size=       1KiB time=00:00:00.03 bitrate= 170.9kbits/s speed=0.00112x elapsed=0:00:29.72    \nframe=    3 fps=0.1 q=19.0 size=       1KiB time=00:00:00.03 bitrate= 170.9kbits/s speed=0.0011x elapsed=0:00:30.43    \nframe=    4 fps=0.1 q=22.0 size=       1KiB time=00:00:00.05 bitrate= 113.9kbits/s speed=0.00161x elapsed=0:00:30.98    \nframe=    5 fps=0.2 q=18.0 size=       1KiB time=00:00:00.06 bitrate=  85.4kbits/s speed=0.0021x elapsed=0:00:31.68    \nframe=    6 fps=0.2 q=19.0 size=       1KiB time=00:00:00.08 bitrate=  68.4kbits/s speed=0.00257x elapsed=0:00:32.48    \nframe=    7 fps=0.2 q=18.0 size=       1KiB time=00:00:00.08 bitrate=  68.4kbits/s speed=0.0025x elapsed=0:00:33.31    \nframe=    7 fps=0.2 q=18.0 size=       1KiB time=00:00:00.10 bitrate=  57.0kbits/s speed=0.00295x elapsed=0:00:33.93    \nframe=    7 fps=0.2 q=18.0 size=       1KiB time=00:00:00.10 bitrate=  57.0kbits/s speed=0.0029x elapsed=0:00:34.44    \nframe=    9 fps=0.3 q=15.0 size=       1KiB time=00:00:00.13 bitrate=  42.7kbits/s speed=0.00381x elapsed=0:00:34.97    \nframe=    9 fps=0.3 q=15.0 size=       1KiB time=00:00:00.13 bitrate=  42.7kbits/s speed=0.00376x elapsed=0:00:35.48    \nframe=   10 fps=0.3 q=15.0 size=       1KiB time=00:00:00.15 bitrate=  38.0kbits/s speed=0.00417x elapsed=0:00:35.99    \nframe=   10 fps=0.3 q=15.0 size=       1KiB time=00:00:00.15 bitrate=  38.0kbits/s speed=0.00411x elapsed=0:00:36.50    \nframe=   12 fps=0.3 q=15.0 size=       1KiB time=00:00:00.18 bitrate=  31.1kbits/s speed=0.00495x elapsed=0:00:37.02    \nframe=   12 fps=0.3 q=15.0 size=       1KiB time=00:00:00.18 bitrate=  31.1kbits/s speed=0.00488x elapsed=0:00:37.55    \nframe=   13 fps=0.3 q=15.0 size=       1KiB time=00:00:00.20 bitrate=  28.5kbits/s speed=0.00525x elapsed=0:00:38.06    \nframe=   14 fps=0.4 q=15.0 size=       1KiB time=00:00:00.21 bitrate=  26.3kbits/s speed=0.00562x elapsed=0:00:38.58    \nframe=   15 fps=0.4 q=15.0 size=       1KiB time=00:00:00.23 bitrate=  24.4kbits/s speed=0.00597x elapsed=0:00:39.09    \nframe=   16 fps=0.4 q=15.0 size=       1KiB time=00:00:00.25 bitrate=  22.8kbits/s speed=0.00631x elapsed=0:00:39.60    \nframe=   17 fps=0.4 q=8.0 size=       1KiB time=00:00:00.26 bitrate=  21.4kbits/s speed=0.00665x elapsed=0:00:40.12    \nframe=   17 fps=0.4 q=8.0 size=       1KiB time=00:00:00.26 bitrate=  21.4kbits/s speed=0.00656x elapsed=0:00:40.63    \nframe=   18 fps=0.4 q=13.0 size=       1KiB time=00:00:00.28 bitrate=  20.1kbits/s speed=0.00688x elapsed=0:00:41.16    \nframe=   18 fps=0.4 q=13.0 size=       1KiB time=00:00:00.28 bitrate=  20.1kbits/s speed=0.0068x elapsed=0:00:41.66    \nframe=   19 fps=0.5 q=16.0 size=       1KiB time=00:00:00.30 bitrate=  19.0kbits/s speed=0.00711x elapsed=0:00:42.18    \nframe=   19 fps=0.4 q=16.0 size=       1KiB time=00:00:00.30 bitrate=  19.0kbits/s speed=0.00702x elapsed=0:00:42.70    \nframe=   20 fps=0.5 q=13.0 size=       1KiB time=00:00:00.31 bitrate=  18.0kbits/s speed=0.00733x elapsed=0:00:43.21    \nframe=   21 fps=0.5 q=14.0 size=       1KiB time=00:00:00.33 bitrate=  17.1kbits/s speed=0.00762x elapsed=0:00:43.73    \nframe=   21 fps=0.5 q=14.0 size=       1KiB time=00:00:00.33 bitrate=  17.1kbits/s speed=0.00753x elapsed=0:00:44.26    \nframe=   22 fps=0.5 q=14.0 size=       1KiB time=00:00:00.35 bitrate=  16.3kbits/s speed=0.00782x elapsed=0:00:44.77    \nframe=   22 fps=0.5 q=14.0 size=       1KiB time=00:00:00.35 bitrate=  16.3kbits/s speed=0.00772x elapsed=0:00:45.31    \nframe=   23 fps=0.5 q=16.0 size=       1KiB time=00:00:00.36 bitrate=  15.5kbits/s speed=0.008x elapsed=0:00:45.82    \nframe=   23 fps=0.5 q=16.0 size=       1KiB time=00:00:00.36 bitrate=  15.5kbits/s speed=0.00791x elapsed=0:00:46.38    \nframe=   25 fps=0.5 q=13.0 size=       1KiB time=00:00:00.40 bitrate=  14.2kbits/s speed=0.00853x elapsed=0:00:46.90    \nframe=   25 fps=0.5 q=13.0 size=       1KiB time=00:00:00.40 bitrate=  14.2kbits/s speed=0.00843x elapsed=0:00:47.43    \nframe=   26 fps=0.5 q=14.0 size=       1KiB time=00:00:00.41 bitrate=  13.7kbits/s speed=0.00869x elapsed=0:00:47.96    \nframe=   27 fps=0.6 q=16.0 size=       1KiB time=00:00:00.43 bitrate=  13.1kbits/s speed=0.00894x elapsed=0:00:48.49    \nframe=   27 fps=0.6 q=16.0 size=       1KiB time=00:00:00.43 bitrate=  13.1kbits/s speed=0.00884x elapsed=0:00:49.04    \nframe=   29 fps=0.6 q=14.0 size=       1KiB time=00:00:00.46 bitrate=  12.2kbits/s speed=0.00941x elapsed=0:00:49.56    \nframe=   29 fps=0.6 q=14.0 size=       1KiB time=00:00:00.46 bitrate=  12.2kbits/s speed=0.00932x elapsed=0:00:50.09    \nframe=   31 fps=0.6 q=15.0 size=       1KiB time=00:00:00.50 bitrate=  11.4kbits/s speed=0.00988x elapsed=0:00:50.60    \nframe=   32 fps=0.6 q=17.0 size=       1KiB time=00:00:00.51 bitrate=  11.0kbits/s speed=0.0101x elapsed=0:00:51.14    \nframe=   33 fps=0.6 q=9.0 size=       1KiB time=00:00:00.53 bitrate=  10.7kbits/s speed=0.0103x elapsed=0:00:51.71    \nframe=   34 fps=0.7 q=17.0 size=       1KiB time=00:00:00.55 bitrate=  10.4kbits/s speed=0.0105x elapsed=0:00:52.24    \nframe=   35 fps=0.7 q=16.0 size=       1KiB time=00:00:00.56 bitrate=  10.1kbits/s speed=0.0107x elapsed=0:00:52.76    \nframe=   36 fps=0.7 q=16.0 size=       1KiB time=00:00:00.58 bitrate=   9.8kbits/s speed=0.0109x elapsed=0:00:53.28    \nframe=   37 fps=0.7 q=13.0 size=       1KiB time=00:00:00.60 bitrate=   9.5kbits/s speed=0.0111x elapsed=0:00:53.81    \nframe=   38 fps=0.7 q=16.0 size=       1KiB time=00:00:00.61 bitrate=   9.2kbits/s speed=0.0114x elapsed=0:00:54.32    \nframe=   38 fps=0.7 q=16.0 size=       1KiB time=00:00:00.61 bitrate=   9.2kbits/s speed=0.0112x elapsed=0:00:54.84    \nframe=   39 fps=0.7 q=16.0 size=       1KiB time=00:00:00.63 bitrate=   9.0kbits/s speed=0.0114x elapsed=0:00:55.38    \nframe=   39 fps=0.7 q=16.0 size=       1KiB time=00:00:00.63 bitrate=   9.0kbits/s speed=0.0113x elapsed=0:00:55.97    \nframe=   41 fps=0.7 q=9.0 size=       1KiB time=00:00:00.66 bitrate=   8.5kbits/s speed=0.0118x elapsed=0:00:56.52    \nframe=   42 fps=0.7 q=16.0 size=       1KiB time=00:00:00.68 bitrate=   8.3kbits/s speed=0.012x elapsed=0:00:57.05    \nframe=   43 fps=0.7 q=16.0 size=       1KiB time=00:00:00.70 bitrate=   8.1kbits/s speed=0.0122x elapsed=0:00:57.58    \nframe=   44 fps=0.8 q=15.0 size=       1KiB time=00:00:00.71 bitrate=   7.9kbits/s speed=0.0123x elapsed=0:00:58.13    \nframe=   45 fps=0.8 q=13.0 size=       1KiB time=00:00:00.73 bitrate=   7.8kbits/s speed=0.0125x elapsed=0:00:58.69    \nframe=   46 fps=0.8 q=15.0 size=       1KiB time=00:00:00.75 bitrate=   7.6kbits/s speed=0.0127x elapsed=0:00:59.22    \nframe=   48 fps=0.8 q=15.0 size=       1KiB time=00:00:00.78 bitrate=   7.3kbits/s speed=0.0131x elapsed=0:00:59.85    \nframe=   49 fps=0.8 q=6.0 size=       1KiB time=00:00:00.80 bitrate=   7.1kbits/s speed=0.0132x elapsed=0:01:00.41    \nframe=   50 fps=0.8 q=17.0 size=       1KiB time=00:00:00.81 bitrate=   7.0kbits/s speed=0.0134x elapsed=0:01:00.95    \nframe=   50 fps=0.8 q=17.0 size=       1KiB time=00:00:00.81 bitrate=   7.0kbits/s speed=0.0133x elapsed=0:01:01.47    \nframe=   51 fps=0.8 q=16.0 size=       1KiB time=00:00:00.83 bitrate=   6.8kbits/s speed=0.0134x elapsed=0:01:01.99    \nframe=   52 fps=0.8 q=16.0 size=       1KiB time=00:00:00.85 bitrate=   6.7kbits/s speed=0.0136x elapsed=0:01:02.52    \nframe=   53 fps=0.8 q=14.0 size=       1KiB time=00:00:00.86 bitrate=   6.6kbits/s speed=0.0137x elapsed=0:01:03.09    \nframe=   54 fps=0.8 q=15.0 size=       1KiB time=00:00:00.88 bitrate=   6.4kbits/s speed=0.0139x elapsed=0:01:03.64    \nframe=   54 fps=0.8 q=15.0 size=       1KiB time=00:00:00.88 bitrate=   6.4kbits/s speed=0.0138x elapsed=0:01:04.17    \nframe=   56 fps=0.9 q=15.0 size=       1KiB time=00:00:00.91 bitrate=   6.2kbits/s speed=0.0142x elapsed=0:01:04.71    \nframe=   57 fps=0.9 q=9.0 size=       1KiB time=00:00:00.93 bitrate=   6.1kbits/s speed=0.0143x elapsed=0:01:05.26    \nframe=   58 fps=0.9 q=15.0 size=       1KiB time=00:00:00.93 bitrate=   6.1kbits/s speed=0.0142x elapsed=0:01:05.85    \nframe=   58 fps=0.9 q=15.0 size=       1KiB time=00:00:00.95 bitrate=   6.0kbits/s speed=0.0143x elapsed=0:01:06.53    \nframe=   60 fps=0.9 q=16.0 size=       1KiB time=00:00:00.98 bitrate=   5.8kbits/s speed=0.0146x elapsed=0:01:07.14    \nframe=   61 fps=0.9 q=14.0 size=       1KiB time=00:00:01.00 bitrate=   5.7kbits/s speed=0.0148x elapsed=0:01:07.78    \nframe=   63 fps=0.9 q=15.0 size=       1KiB time=00:00:01.01 bitrate=   5.6kbits/s speed=0.0149x elapsed=0:01:08.31    \nframe=   63 fps=0.9 q=15.0 size=       1KiB time=00:00:01.03 bitrate=   5.5kbits/s speed=0.015x elapsed=0:01:08.86    \nframe=   64 fps=0.9 q=15.0 size=       1KiB time=00:00:01.05 bitrate=   5.4kbits/s speed=0.0151x elapsed=0:01:09.42    \nframe=   65 fps=0.9 q=2.0 size=       1KiB time=00:00:01.06 bitrate=   5.3kbits/s speed=0.0153x elapsed=0:01:09.93    \nframe=   65 fps=0.9 q=2.0 size=       1KiB time=00:00:01.06 bitrate=   5.3kbits/s speed=0.0151x elapsed=0:01:10.44    \nframe=   66 fps=0.9 q=17.0 size=       1KiB time=00:00:01.08 bitrate=   5.3kbits/s speed=0.0153x elapsed=0:01:10.97    \nframe=   67 fps=0.9 q=16.0 size=       1KiB time=00:00:01.10 bitrate=   5.2kbits/s speed=0.0154x elapsed=0:01:11.48    \nframe=   68 fps=0.9 q=16.0 size=       1KiB time=00:00:01.11 bitrate=   5.1kbits/s speed=0.0155x elapsed=0:01:12.07    \nframe=   69 fps=1.0 q=14.0 size=       1KiB time=00:00:01.13 bitrate=   5.0kbits/s speed=0.0156x elapsed=0:01:12.61    \nframe=   70 fps=1.0 q=16.0 size=       1KiB time=00:00:01.15 bitrate=   5.0kbits/s speed=0.0157x elapsed=0:01:13.11    \nframe=   70 fps=1.0 q=16.0 size=       1KiB time=00:00:01.15 bitrate=   5.0kbits/s speed=0.0156x elapsed=0:01:13.67    \nframe=   71 fps=1.0 q=16.0 size=       1KiB time=00:00:01.16 bitrate=   4.9kbits/s speed=0.0157x elapsed=0:01:14.24    \nframe=   72 fps=1.0 q=16.0 size=       1KiB time=00:00:01.18 bitrate=   4.8kbits/s speed=0.0158x elapsed=0:01:14.78    \nframe=   73 fps=1.0 q=9.0 size=       1KiB time=00:00:01.20 bitrate=   4.7kbits/s speed=0.0159x elapsed=0:01:15.31    \nframe=   75 fps=1.0 q=16.0 size=       1KiB time=00:00:01.23 bitrate=   4.6kbits/s speed=0.0163x elapsed=0:01:15.85    \nframe=   75 fps=1.0 q=16.0 size=       1KiB time=00:00:01.23 bitrate=   4.6kbits/s speed=0.0161x elapsed=0:01:16.37    \nframe=   76 fps=1.0 q=15.0 size=       1KiB time=00:00:01.25 bitrate=   4.6kbits/s speed=0.0163x elapsed=0:01:16.89    \nframe=   78 fps=1.0 q=15.0 size=       1KiB time=00:00:01.28 bitrate=   4.4kbits/s speed=0.0166x elapsed=0:01:17.43    \nframe=   79 fps=1.0 q=15.0 size=       1KiB time=00:00:01.30 bitrate=   4.4kbits/s speed=0.0167x elapsed=0:01:17.96    \nframe=   80 fps=1.0 q=16.0 size=       1KiB time=00:00:01.31 bitrate=   4.3kbits/s speed=0.0168x elapsed=0:01:18.50    \nframe=   81 fps=1.0 q=2.0 size=       1KiB time=00:00:01.33 bitrate=   4.3kbits/s speed=0.0169x elapsed=0:01:19.03    \nframe=   82 fps=1.0 q=14.0 size=       1KiB time=00:00:01.35 bitrate=   4.2kbits/s speed=0.017x elapsed=0:01:19.56    \nframe=   82 fps=1.0 q=14.0 size=       1KiB time=00:00:01.35 bitrate=   4.2kbits/s speed=0.0169x elapsed=0:01:20.07    \nframe=   83 fps=1.0 q=15.0 size=       1KiB time=00:00:01.36 bitrate=   4.2kbits/s speed=0.017x elapsed=0:01:20.60    \nframe=   84 fps=1.0 q=14.0 size=       1KiB time=00:00:01.38 bitrate=   4.1kbits/s speed=0.0171x elapsed=0:01:21.13    \nframe=   85 fps=1.0 q=13.0 size=       1KiB time=00:00:01.40 bitrate=   4.1kbits/s speed=0.0171x elapsed=0:01:21.65    \nframe=   86 fps=1.0 q=14.0 size=       1KiB time=00:00:01.41 bitrate=   4.0kbits/s speed=0.0172x elapsed=0:01:22.16    \nframe=   86 fps=1.0 q=14.0 size=       1KiB time=00:00:01.41 bitrate=   4.0kbits/s speed=0.0171x elapsed=0:01:22.68    \nframe=   88 fps=1.1 q=15.0 size=       1KiB time=00:00:01.45 bitrate=   3.9kbits/s speed=0.0174x elapsed=0:01:23.20    \nframe=   89 fps=1.1 q=8.0 size=       1KiB time=00:00:01.46 bitrate=   3.9kbits/s speed=0.0175x elapsed=0:01:23.71    \nframe=   91 fps=1.1 q=15.0 size=       1KiB time=00:00:01.50 bitrate=   3.8kbits/s speed=0.0178x elapsed=0:01:24.24    \nframe=   92 fps=1.1 q=16.0 size=       1KiB time=00:00:01.51 bitrate=   3.8kbits/s speed=0.0179x elapsed=0:01:24.76    \nframe=   94 fps=1.1 q=16.0 size=       1KiB time=00:00:01.55 bitrate=   3.7kbits/s speed=0.0182x elapsed=0:01:25.32    \nframe=   95 fps=1.1 q=15.0 size=       1KiB time=00:00:01.56 bitrate=   3.6kbits/s speed=0.0183x elapsed=0:01:25.83    \nframe=   96 fps=1.1 q=16.0 size=       1KiB time=00:00:01.58 bitrate=   3.6kbits/s speed=0.0183x elapsed=0:01:26.39    \nframe=   97 fps=1.1 q=4.0 size=       1KiB time=00:00:01.60 bitrate=   3.6kbits/s speed=0.0184x elapsed=0:01:26.91    \nframe=   98 fps=1.1 q=17.0 size=       1KiB time=00:00:01.61 bitrate=   3.5kbits/s speed=0.0185x elapsed=0:01:27.45    \nframe=   99 fps=1.1 q=16.0 size=       1KiB time=00:00:01.63 bitrate=   3.5kbits/s speed=0.0186x elapsed=0:01:28.00    \nframe=  101 fps=1.1 q=14.0 size=       1KiB time=00:00:01.66 bitrate=   3.4kbits/s speed=0.0188x elapsed=0:01:28.53    \nframe=  101 fps=1.1 q=14.0 size=       1KiB time=00:00:01.66 bitrate=   3.4kbits/s speed=0.0187x elapsed=0:01:29.05    \nframe=  102 fps=1.1 q=17.0 size=       1KiB time=00:00:01.68 bitrate=   3.4kbits/s speed=0.0188x elapsed=0:01:29.62    \nframe=  102 fps=1.1 q=17.0 size=       1KiB time=00:00:01.68 bitrate=   3.4kbits/s speed=0.0187x elapsed=0:01:30.20    \nframe=  104 fps=1.1 q=17.0 size=       1KiB time=00:00:01.71 bitrate=   3.3kbits/s speed=0.0189x elapsed=0:01:30.76    \nframe=  105 fps=1.2 q=10.0 size=       1KiB time=00:00:01.73 bitrate=   3.3kbits/s speed=0.019x elapsed=0:01:31.28    \nframe=  106 fps=1.2 q=17.0 size=       1KiB time=00:00:01.75 bitrate=   3.3kbits/s speed=0.0191x elapsed=0:01:31.82    \nframe=  107 fps=1.2 q=16.0 size=       1KiB time=00:00:01.76 bitrate=   3.2kbits/s speed=0.0191x elapsed=0:01:32.35    \nframe=  108 fps=1.2 q=15.0 size=       1KiB time=00:00:01.78 bitrate=   3.2kbits/s speed=0.0192x elapsed=0:01:32.88    \nframe=  110 fps=1.2 q=16.0 size=       1KiB time=00:00:01.81 bitrate=   3.1kbits/s speed=0.0195x elapsed=0:01:33.40    \nframe=  111 fps=1.2 q=15.0 size=       1KiB time=00:00:01.83 bitrate=   3.1kbits/s speed=0.0195x elapsed=0:01:33.97    \nframe=  112 fps=1.2 q=16.0 size=       1KiB time=00:00:01.85 bitrate=   3.1kbits/s speed=0.0196x elapsed=0:01:34.48    \nframe=  114 fps=1.2 q=16.0 size=       1KiB time=00:00:01.88 bitrate=   3.0kbits/s speed=0.0198x elapsed=0:01:35.00    \nframe=  114 fps=1.2 q=16.0 size=       1KiB time=00:00:01.88 bitrate=   3.0kbits/s speed=0.0197x elapsed=0:01:35.52    \nframe=  115 fps=1.2 q=15.0 size=       1KiB time=00:00:01.90 bitrate=   3.0kbits/s speed=0.0198x elapsed=0:01:36.05    \nframe=  116 fps=1.2 q=16.0 size=       1KiB time=00:00:01.91 bitrate=   3.0kbits/s speed=0.0198x elapsed=0:01:36.59    \nframe=  117 fps=1.2 q=13.0 size=       1KiB time=00:00:01.93 bitrate=   2.9kbits/s speed=0.0199x elapsed=0:01:37.14    \nframe=  118 fps=1.2 q=16.0 size=       1KiB time=00:00:01.95 bitrate=   2.9kbits/s speed=0.02x elapsed=0:01:37.69    \nframe=  118 fps=1.2 q=16.0 size=       1KiB time=00:00:01.95 bitrate=   2.9kbits/s speed=0.0198x elapsed=0:01:38.24    \nframe=  120 fps=1.2 q=16.0 size=       1KiB time=00:00:01.98 bitrate=   2.9kbits/s speed=0.0201x elapsed=0:01:38.78    \nframe=  121 fps=1.2 q=12.0 size=       1KiB time=00:00:02.00 bitrate=   2.8kbits/s speed=0.0201x elapsed=0:01:39.33    \nframe=  123 fps=1.2 q=15.0 size=       1KiB time=00:00:02.03 bitrate=   2.8kbits/s speed=0.0203x elapsed=0:01:39.92    \nframe=  124 fps=1.2 q=16.0 size=       1KiB time=00:00:02.05 bitrate=   2.8kbits/s speed=0.0204x elapsed=0:01:40.46    \nframe=  125 fps=1.2 q=13.0 size=       1KiB time=00:00:02.06 bitrate=   2.8kbits/s speed=0.0205x elapsed=0:01:41.05    \nframe=  127 fps=1.2 q=15.0 size=       1KiB time=00:00:02.10 bitrate=   2.7kbits/s speed=0.0207x elapsed=0:01:41.61    \nframe=  127 fps=1.2 q=15.0 size=       1KiB time=00:00:02.10 bitrate=   2.7kbits/s speed=0.0206x elapsed=0:01:42.17    \nframe=  128 fps=1.2 q=16.0 size=       1KiB time=00:00:02.11 bitrate=   2.7kbits/s speed=0.0206x elapsed=0:01:42.67    \nframe=  129 fps=1.2 q=7.0 size=       1KiB time=00:00:02.13 bitrate=   2.7kbits/s speed=0.0207x elapsed=0:01:43.20    \nframe=  130 fps=1.3 q=16.0 size=       1KiB time=00:00:02.15 bitrate=   2.6kbits/s speed=0.0207x elapsed=0:01:43.72    \nframe=  131 fps=1.3 q=15.0 size=       1KiB time=00:00:02.16 bitrate=   2.6kbits/s speed=0.0208x elapsed=0:01:44.27    \nframe=  132 fps=1.3 q=16.0 size=       1KiB time=00:00:02.18 bitrate=   2.6kbits/s speed=0.0208x elapsed=0:01:44.78    \nframe=  133 fps=1.3 q=13.0 size=       1KiB time=00:00:02.20 bitrate=   2.6kbits/s speed=0.0209x elapsed=0:01:45.30    \nframe=  134 fps=1.3 q=16.0 size=       1KiB time=00:00:02.21 bitrate=   2.6kbits/s speed=0.0209x elapsed=0:01:45.82    \nframe=  134 fps=1.3 q=16.0 size=       1KiB time=00:00:02.21 bitrate=   2.6kbits/s speed=0.0208x elapsed=0:01:46.38    \nframe=  136 fps=1.3 q=16.0 size=       1KiB time=00:00:02.25 bitrate=   2.5kbits/s speed=0.021x elapsed=0:01:46.90    \nframe=  138 fps=1.3 q=18.0 size=       1KiB time=00:00:02.28 bitrate=   2.5kbits/s speed=0.0213x elapsed=0:01:47.41    \nframe=  139 fps=1.3 q=16.0 size=       1KiB time=00:00:02.30 bitrate=   2.5kbits/s speed=0.0213x elapsed=0:01:47.93    \nframe=  140 fps=1.3 q=18.0 size=       1KiB time=00:00:02.31 bitrate=   2.5kbits/s speed=0.0214x elapsed=0:01:48.45    \nframe=  141 fps=1.3 q=13.0 size=       1KiB time=00:00:02.33 bitrate=   2.4kbits/s speed=0.0214x elapsed=0:01:49.13    \nframe=  143 fps=1.3 q=16.0 size=       1KiB time=00:00:02.36 bitrate=   2.4kbits/s speed=0.0216x elapsed=0:01:49.67    \nframe=  143 fps=1.3 q=16.0 size=       1KiB time=00:00:02.36 bitrate=   2.4kbits/s speed=0.0215x elapsed=0:01:50.19    \nframe=  145 fps=1.3 q=6.0 size=       1KiB time=00:00:02.40 bitrate=   2.4kbits/s speed=0.0217x elapsed=0:01:50.72    \nframe=  146 fps=1.3 q=18.0 size=       1KiB time=00:00:02.41 bitrate=   2.4kbits/s speed=0.0217x elapsed=0:01:51.24    \nframe=  146 fps=1.3 q=18.0 size=       1KiB time=00:00:02.41 bitrate=   2.4kbits/s speed=0.0216x elapsed=0:01:51.77    \nframe=  148 fps=1.3 q=18.0 size=       1KiB time=00:00:02.45 bitrate=   2.3kbits/s speed=0.0218x elapsed=0:01:52.29    \nframe=  149 fps=1.3 q=13.0 size=       1KiB time=00:00:02.46 bitrate=   2.3kbits/s speed=0.0219x elapsed=0:01:52.80    \nframe=  150 fps=1.3 q=18.0 size=       1KiB time=00:00:02.48 bitrate=   2.3kbits/s speed=0.0219x elapsed=0:01:53.35    \nframe=  150 fps=1.3 q=18.0 size=       1KiB time=00:00:02.48 bitrate=   2.3kbits/s speed=0.0218x elapsed=0:01:53.88    \nframe=  152 fps=1.3 q=18.0 size=       1KiB time=00:00:02.51 bitrate=   2.3kbits/s speed=0.022x elapsed=0:01:54.40    \nframe=  153 fps=1.3 q=13.0 size=       1KiB time=00:00:02.53 bitrate=   2.2kbits/s speed=0.022x elapsed=0:01:54.93    \nframe=  154 fps=1.3 q=18.0 size=       1KiB time=00:00:02.55 bitrate=   2.2kbits/s speed=0.0221x elapsed=0:01:55.46    \nframe=  155 fps=1.3 q=16.0 size=       1KiB time=00:00:02.56 bitrate=   2.2kbits/s speed=0.0221x elapsed=0:01:56.01    \nframe=  156 fps=1.3 q=17.0 size=       1KiB time=00:00:02.58 bitrate=   2.2kbits/s speed=0.0222x elapsed=0:01:56.54    \nframe=  158 fps=1.3 q=19.0 size=       1KiB time=00:00:02.61 bitrate=   2.2kbits/s speed=0.0224x elapsed=0:01:57.05    \nframe=  159 fps=1.4 q=17.0 size=       1KiB time=00:00:02.63 bitrate=   2.2kbits/s speed=0.0224x elapsed=0:01:57.57    \nframe=  160 fps=1.4 q=19.0 size=       1KiB time=00:00:02.65 bitrate=   2.1kbits/s speed=0.0224x elapsed=0:01:58.10    \nframe=  161 fps=1.4 q=7.0 size=       1KiB time=00:00:02.66 bitrate=   2.1kbits/s speed=0.0225x elapsed=0:01:58.64    \nframe=  163 fps=1.4 q=18.0 size=       1KiB time=00:00:02.68 bitrate=   2.1kbits/s speed=0.0225x elapsed=0:01:59.19    \nframe=  165 fps=1.4 q=15.0 size=       1KiB time=00:00:02.73 bitrate=   2.1kbits/s speed=0.0228x elapsed=0:01:59.88    \nframe=  166 fps=1.4 q=19.0 size=       1KiB time=00:00:02.75 bitrate=   2.1kbits/s speed=0.0228x elapsed=0:02:00.57    \nframe=  168 fps=1.4 q=19.0 size=       1KiB time=00:00:02.78 bitrate=   2.0kbits/s speed=0.0229x elapsed=0:02:01.40    \nframe=  170 fps=1.4 q=19.0 size=       1KiB time=00:00:02.80 bitrate=   2.0kbits/s speed=0.0229x elapsed=0:02:02.11    \nframe=  172 fps=1.4 q=19.0 size=       1KiB time=00:00:02.83 bitrate=   2.0kbits/s speed=0.0231x elapsed=0:02:02.78    \nframe=  175 fps=1.4 q=18.0 size=       1KiB time=00:00:02.86 bitrate=   2.0kbits/s speed=0.0232x elapsed=0:02:03.52    \nframe=  176 fps=1.4 q=19.0 size=       1KiB time=00:00:02.91 bitrate=   2.0kbits/s speed=0.0235x elapsed=0:02:04.20    \nframe=  178 fps=1.4 q=19.0 size=       1KiB time=00:00:02.95 bitrate=   1.9kbits/s speed=0.0236x elapsed=0:02:04.81    \nframe=  180 fps=1.4 q=19.0 size=       1KiB time=00:00:02.98 bitrate=   1.9kbits/s speed=0.0238x elapsed=0:02:05.39    \nframe=  181 fps=1.4 q=15.0 size=       1KiB time=00:00:03.00 bitrate=   1.9kbits/s speed=0.0238x elapsed=0:02:06.06    \nframe=  182 fps=1.4 q=19.0 size=       1KiB time=00:00:03.01 bitrate=   1.9kbits/s speed=0.0238x elapsed=0:02:06.74    \nframe=  185 fps=1.5 q=15.0 size=       1KiB time=00:00:03.05 bitrate=   1.9kbits/s speed=0.0239x elapsed=0:02:07.45    \nframe=  186 fps=1.5 q=19.0 size=       1KiB time=00:00:03.08 bitrate=   1.8kbits/s speed=0.024x elapsed=0:02:08.21    \nframe=  188 fps=1.5 q=19.0 size=       1KiB time=00:00:03.11 bitrate=   1.8kbits/s speed=0.0242x elapsed=0:02:08.87    \nframe=  191 fps=1.5 q=17.0 size=       1KiB time=00:00:03.16 bitrate=   1.8kbits/s speed=0.0244x elapsed=0:02:09.56    \nframe=  193 fps=1.5 q=9.0 size=       1KiB time=00:00:03.18 bitrate=   1.8kbits/s speed=0.0244x elapsed=0:02:10.24    \nframe=  194 fps=1.5 q=18.0 size=       1KiB time=00:00:03.21 bitrate=   1.8kbits/s speed=0.0246x elapsed=0:02:10.90    \nframe=  196 fps=1.5 q=18.0 size=       1KiB time=00:00:03.23 bitrate=   1.8kbits/s speed=0.0246x elapsed=0:02:11.62    \nframe=  197 fps=1.5 q=14.0 size=       1KiB time=00:00:03.26 bitrate=   1.7kbits/s speed=0.0247x elapsed=0:02:12.31    \nframe=  198 fps=1.5 q=18.0 size=       1KiB time=00:00:03.28 bitrate=   1.7kbits/s speed=0.0247x elapsed=0:02:13.03    \nframe=  201 fps=1.5 q=15.0 size=       1KiB time=00:00:03.31 bitrate=   1.7kbits/s speed=0.0248x elapsed=0:02:13.78    \nframe=  205 fps=1.5 q=14.0 size=       1KiB time=00:00:03.40 bitrate=   1.7kbits/s speed=0.0253x elapsed=0:02:14.46    \nframe=  205 fps=1.5 q=14.0 size=       1KiB time=00:00:03.40 bitrate=   1.7kbits/s speed=0.0252x elapsed=0:02:15.18    \nframe=  207 fps=1.5 q=17.0 size=       1KiB time=00:00:03.43 bitrate=   1.7kbits/s speed=0.0253x elapsed=0:02:15.90    \nframe=  209 fps=1.5 q=10.0 size=       1KiB time=00:00:03.46 bitrate=   1.6kbits/s speed=0.0254x elapsed=0:02:16.48    \nframe=  213 fps=1.6 q=17.0 size=    5120KiB time=00:00:03.50 bitrate=11983.7kbits/s speed=0.0255x elapsed=0:02:17.01    \nframe=  213 fps=1.5 q=17.0 size=    5120KiB time=00:00:03.53 bitrate=11870.7kbits/s speed=0.0257x elapsed=0:02:17.64    \nframe=  217 fps=1.6 q=14.0 size=    5120KiB time=00:00:03.60 bitrate=11650.8kbits/s speed=0.026x elapsed=0:02:18.31    \nframe=  217 fps=1.6 q=14.0 size=    5120KiB time=00:00:03.60 bitrate=11650.8kbits/s speed=0.0259x elapsed=0:02:18.91    \nframe=  217 fps=1.6 q=14.0 size=    5120KiB time=00:00:03.60 bitrate=11650.8kbits/s speed=0.0258x elapsed=0:02:19.48    \nframe=  219 fps=1.6 q=17.0 size=    5120KiB time=00:00:03.60 bitrate=11650.8kbits/s speed=0.0257x elapsed=0:02:20.23    \nframe=  221 fps=1.6 q=14.0 size=    5120KiB time=00:00:03.66 bitrate=11439.0kbits/s speed=0.026x elapsed=0:02:20.94    \nframe=  223 fps=1.6 q=17.0 size=    5120KiB time=00:00:03.70 bitrate=11336.0kbits/s speed=0.0261x elapsed=0:02:21.63    \nframe=  225 fps=1.6 q=8.0 size=    5120KiB time=00:00:03.73 bitrate=11234.7kbits/s speed=0.0262x elapsed=0:02:22.28    \nframe=  227 fps=1.6 q=17.0 size=    5120KiB time=00:00:03.76 bitrate=11135.3kbits/s speed=0.0264x elapsed=0:02:22.92    \nframe=  229 fps=1.6 q=14.0 size=    5120KiB time=00:00:03.80 bitrate=11037.6kbits/s speed=0.0265x elapsed=0:02:23.59    \nframe=  233 fps=1.6 q=14.0 size=    5120KiB time=00:00:03.86 bitrate=10847.3kbits/s speed=0.0268x elapsed=0:02:24.21    \nframe=  233 fps=1.6 q=14.0 size=    5120KiB time=00:00:03.86 bitrate=10847.3kbits/s speed=0.0267x elapsed=0:02:24.84    \nframe=  233 fps=1.6 q=14.0 size=    5120KiB time=00:00:03.86 bitrate=10847.3kbits/s speed=0.0266x elapsed=0:02:25.52    \nframe=  237 fps=1.6 q=14.0 size=    5120KiB time=00:00:03.93 bitrate=10663.5kbits/s speed=0.0269x elapsed=0:02:26.13    \nframe=  237 fps=1.6 q=14.0 size=    5120KiB time=00:00:03.93 bitrate=10663.5kbits/s speed=0.0268x elapsed=0:02:26.76    \nframe=  241 fps=1.6 q=8.0 size=    5120KiB time=00:00:04.00 bitrate=10485.8kbits/s speed=0.0271x elapsed=0:02:27.36    \nframe=  243 fps=1.6 q=17.0 size=    5120KiB time=00:00:04.00 bitrate=10485.8kbits/s speed=0.027x elapsed=0:02:27.88    \nframe=  245 fps=1.6 q=14.0 size=    5120KiB time=00:00:04.06 bitrate=10313.9kbits/s speed=0.0274x elapsed=0:02:28.60    \nframe=  247 fps=1.7 q=17.0 size=    5120KiB time=00:00:04.10 bitrate=10230.0kbits/s speed=0.0275x elapsed=0:02:29.18    \nframe=  249 fps=1.7 q=14.0 size=    5120KiB time=00:00:04.13 bitrate=10147.5kbits/s speed=0.0276x elapsed=0:02:29.78    \nframe=  249 fps=1.7 q=14.0 size=    5120KiB time=00:00:04.13 bitrate=10147.5kbits/s speed=0.0275x elapsed=0:02:30.41    \nframe=  251 fps=1.7 q=17.0 size=    5120KiB time=00:00:04.16 bitrate=10066.3kbits/s speed=0.0276x elapsed=0:02:31.12    \nframe=  253 fps=1.7 q=14.0 size=    5120KiB time=00:00:04.20 bitrate=9986.4kbits/s speed=0.0277x elapsed=0:02:31.89    \nframe=  253 fps=1.7 q=14.0 size=    5120KiB time=00:00:04.20 bitrate=9986.4kbits/s speed=0.0275x elapsed=0:02:32.61    \nframe=  255 fps=1.7 q=17.0 size=    5120KiB time=00:00:04.23 bitrate=9907.8kbits/s speed=0.0276x elapsed=0:02:33.24    \nframe=  257 fps=1.7 q=8.0 size=    5120KiB time=00:00:04.26 bitrate=9830.4kbits/s speed=0.0277x elapsed=0:02:34.06    \nframe=  261 fps=1.7 q=13.0 size=    5120KiB time=00:00:04.33 bitrate=9679.2kbits/s speed=0.028x elapsed=0:02:34.74    \nframe=  261 fps=1.7 q=13.0 size=    5120KiB time=00:00:04.33 bitrate=9679.2kbits/s speed=0.0279x elapsed=0:02:35.38    \nframe=  265 fps=1.7 q=14.0 size=    5120KiB time=00:00:04.40 bitrate=9532.5kbits/s speed=0.0282x elapsed=0:02:35.99    \nframe=  265 fps=1.7 q=14.0 size=    5120KiB time=00:00:04.40 bitrate=9532.5kbits/s speed=0.0281x elapsed=0:02:36.63    \nframe=  267 fps=1.7 q=17.0 size=    5120KiB time=00:00:04.43 bitrate=9460.8kbits/s speed=0.0282x elapsed=0:02:37.23    \nframe=  269 fps=1.7 q=15.0 size=    5120KiB time=00:00:04.46 bitrate=9390.2kbits/s speed=0.0283x elapsed=0:02:37.89    \nframe=  271 fps=1.7 q=17.0 size=    5120KiB time=00:00:04.50 bitrate=9320.7kbits/s speed=0.0284x elapsed=0:02:38.59    \nframe=  273 fps=1.7 q=9.0 size=    5120KiB time=00:00:04.53 bitrate=9252.1kbits/s speed=0.0285x elapsed=0:02:39.23    \nframe=  273 fps=1.7 q=9.0 size=    5120KiB time=00:00:04.53 bitrate=9252.1kbits/s speed=0.0284x elapsed=0:02:39.75    \nframe=  275 fps=1.7 q=19.0 size=    5120KiB time=00:00:04.56 bitrate=9184.6kbits/s speed=0.0285x elapsed=0:02:40.31    \nframe=  277 fps=1.7 q=20.0 size=    5120KiB time=00:00:04.60 bitrate=9118.1kbits/s speed=0.0286x elapsed=0:02:40.98    \nframe=  279 fps=1.7 q=19.0 size=    5120KiB time=00:00:04.63 bitrate=9052.5kbits/s speed=0.0287x elapsed=0:02:41.59    \nframe=  281 fps=1.7 q=15.0 size=    5120KiB time=00:00:04.66 bitrate=8987.8kbits/s speed=0.0288x elapsed=0:02:42.17    \nframe=  281 fps=1.7 q=15.0 size=    5120KiB time=00:00:04.66 bitrate=8987.8kbits/s speed=0.0287x elapsed=0:02:42.79    \nframe=  283 fps=1.7 q=19.0 size=    5120KiB time=00:00:04.70 bitrate=8924.1kbits/s speed=0.0288x elapsed=0:02:43.42    \nframe=  285 fps=1.7 q=20.0 size=    5120KiB time=00:00:04.73 bitrate=8861.2kbits/s speed=0.0288x elapsed=0:02:44.07    \nframe=  291 fps=1.8 q=20.0 size=    5120KiB time=00:00:04.76 bitrate=8799.2kbits/s speed=0.0289x elapsed=0:02:44.82    \nframe=  295 fps=1.8 q=20.0 size=    5120KiB time=00:00:04.90 bitrate=8559.8kbits/s speed=0.0296x elapsed=0:02:45.53    \n[out#0/matroska @ 000001e705d79480] video:6817KiB audio:0KiB subtitle:0KiB other streams:0KiB global headers:0KiB muxing overhead: 0.032031%\nframe=  300 fps=1.8 q=21.0 Lsize=    6819KiB time=00:00:04.98 bitrate=11210.0kbits/s speed=0.0301x elapsed=0:02:45.82    \n",
  "seconds": 168.44254088401794,
  "probe_out": {}
}